<?xml version="1.0"?>
<svg xmlns="http://www.w3.org/2000/svg" id="Layer_3" enable-background="new 0 0 64 64" height="512px" viewBox="0 0 64 64" width="512px"><g><path d="m62.848 45.47-9.254-14.806c1.414-.618 2.406-2.025 2.406-3.664 0-.732-.212-1.409-.556-2h2.979c2.523 0 4.577-2.054 4.577-4.578 0-1.883-1.129-3.551-2.877-4.25l-2.751-1.101c-.384-.153-.826-.054-1.107.252-.281.305-.344.753-.159 1.124.28.559.251 1.185-.077 1.716-.329.532-.876.837-1.501.837h-19.528v-2h1c.552 0 1-.447 1-1v-4c0-.553-.448-1-1-1h-1.219l-.656-2.624c1.122-.709 1.875-1.953 1.875-3.376 0-2.206-1.794-4-4-4s-4 1.794-4 4c0 1.423.753 2.667 1.875 3.376l-.656 2.624h-1.219c-.552 0-1 .447-1 1v4c0 .553.448 1 1 1h1v2h-19.528c-.625 0-1.172-.305-1.5-.837-.329-.531-.357-1.157-.077-1.716.186-.371.123-.819-.159-1.124-.281-.306-.722-.405-1.107-.252l-2.75 1.101c-1.75.699-2.879 2.367-2.879 4.25 0 2.524 2.054 4.578 4.578 4.578h2.979c-.345.591-.557 1.268-.557 2 0 1.639.992 3.046 2.405 3.664l-9.253 14.806.015.01c-.097.153-.167.325-.167.52 0 3.925 4.832 7 11 7s11-3.075 11-7c0-.195-.07-.367-.167-.521l.015-.01-9.254-14.806c1.414-.617 2.406-2.024 2.406-3.663 0-.732-.212-1.409-.556-2h13.556v23.382c-.615.703-1 1.612-1 2.618 0 1.005.385 1.914.999 2.617-.003 1.47-1.056 2.711-2.506 2.953l-7.301 1.217c-1.27.212-2.192 1.301-2.192 2.589 0 1.447 1.177 2.624 2.624 2.624h24.752c1.447 0 2.624-1.177 2.624-2.624 0-1.288-.922-2.377-2.192-2.589l-7.301-1.217c-1.451-.242-2.503-1.483-2.506-2.953.614-.703.999-1.612.999-2.617s-.385-1.914-1-2.618v-23.382h13.556c-.344.591-.556 1.268-.556 2 0 1.639.992 3.046 2.405 3.664l-9.253 14.806.015.01c-.097.153-.167.325-.167.52 0 3.925 4.832 7 11 7s11-3.075 11-7c0-.195-.07-.367-.167-.521zm-30.848-42.47c1.103 0 2 .897 2 2s-.897 2-2 2-2-.897-2-2 .897-2 2-2zm-.214 5.978c.072.004.141.022.214.022s.142-.018.214-.022l.505 2.022h-1.438zm-2.786 4.022h6v2h-6zm2 4h2v2h-2zm-28 3.422c0-1.061.636-1.999 1.621-2.393l1.101-.44c.054.565.237 1.121.549 1.626.69 1.118 1.887 1.785 3.201 1.785h45.056c1.314 0 2.511-.667 3.202-1.785.312-.505.496-1.061.549-1.626l1.101.44c.984.394 1.62 1.332 1.62 2.393 0 1.422-1.156 2.578-2.578 2.578h-52.844c-1.422 0-2.578-1.156-2.578-2.578zm9 11.465 8.195 13.113h-16.39zm0 19.113c-4.264 0-7.95-1.749-8.811-4h17.621c-.86 2.251-4.546 4-8.81 4zm2-24c0 1.103-.897 2-2 2s-2-.897-2-2 .897-2 2-2 2 .897 2 2zm20 24c0 1.103-.897 2-2 2s-2-.897-2-2 .897-2 2-2 2 .897 2 2zm3.178 7.543 7.3 1.217c.303.051.522.309.522.616 0 .344-.28.624-.624.624h-24.752c-.344 0-.624-.28-.624-.624 0-.307.219-.565.521-.616l7.301-1.217c2.012-.335 3.549-1.832 4.016-3.735.371.113.755.192 1.162.192s.791-.079 1.161-.192c.467 1.903 2.005 3.4 4.017 3.735zm-4.178-11.401c-.322-.084-.653-.142-1-.142s-.678.058-1 .142v-22.142h2zm19-22.142c1.103 0 2 .897 2 2s-.897 2-2 2-2-.897-2-2 .897-2 2-2zm8.195 20h-16.39l8.195-13.113zm-8.195 6c-4.264 0-7.95-1.749-8.811-4h17.621c-.86 2.251-4.546 4-8.81 4z" data-original="#000000" class="active-path" data-old_color="#000000" fill="#04458F"/></g> </svg>
