<?xml version="1.0"?>
<svg xmlns="http://www.w3.org/2000/svg" id="Layer_1" enable-background="new 0 0 512 512" height="512px" viewBox="0 0 512 512" width="512px" class=""><g><g><path d="m315.29 120.971c17.631-16.103 28.71-39.267 28.71-64.971v-40c0-5.143-2.472-9.973-6.645-12.98-4.172-3.007-9.535-3.825-14.415-2.199l-29.309 9.77c-24.268 8.089-50.996 8.089-75.263 0l-29.309-9.77c-4.877-1.627-10.243-.808-14.415 2.199s-6.644 7.837-6.644 12.98v40c0 25.704 11.079 48.868 28.71 64.971-81.423 25.325-140.71 101.383-140.71 191.029v134c0 36.393 29.607 66 66 66h268c36.393 0 66-29.607 66-66v-134c0-89.646-59.287-165.704-140.71-191.029zm-115.29-64.971v-17.801l8.25 2.75c30.792 10.264 64.708 10.265 95.501 0l8.25-2.75v17.801c0 30.878-25.122 56-56 56s-56.001-25.121-56.001-56zm224 390c0 18.748-15.252 34-34 34h-268c-18.748 0-34-15.252-34-34v-134c0-92.636 75.364-168 168-168s168 75.364 168 168z" data-original="#000000" class="active-path" data-old_color="#000000" fill="#04458F"/><path d="m256 296c-17.645 0-32-14.355-32-32s14.355-32 32-32 32 14.355 32 32c0 8.836 7.164 16 16 16s16-7.164 16-16c0-29.767-20.428-54.852-48-61.975v-10.025c0-8.836-7.164-16-16-16s-16 7.164-16 16v10.025c-27.572 7.123-48 32.208-48 61.975 0 35.29 28.71 64 64 64 17.645 0 32 14.355 32 32s-14.355 32-32 32-32-14.355-32-32c0-8.836-7.164-16-16-16s-16 7.164-16 16c0 29.767 20.428 54.852 48 61.975v10.025c0 8.836 7.164 16 16 16s16-7.164 16-16v-10.025c27.572-7.123 48-32.208 48-61.975 0-35.289-28.71-64-64-64z" data-original="#000000" class="active-path" data-old_color="#000000" fill="#04458F"/></g></g> </svg>
